<svg xmlns="http://www.w3.org/2000/svg" width="375" viewBox="0 0 375 375" height="375" version="1.0"><defs><clipPath id="a"><path d="M 81.261719 38 L 293.511719 38 L 293.511719 253.5 L 81.261719 253.5 Z M 81.261719 38"/></clipPath></defs><path fill="#FF9300" d="M 229.585938 228.960938 C 229.503906 229.25 229.421875 229.546875 229.335938 229.835938 C 229.191406 230.332031 229.042969 230.8125 228.898438 231.292969 C 228.816406 231.5625 228.734375 231.839844 228.652344 232.105469 C 228.484375 232.621094 228.324219 233.121094 228.15625 233.621094 C 228.085938 233.832031 228.015625 234.058594 227.945312 234.257812 C 227.710938 234.953125 227.46875 235.632812 227.222656 236.292969 C 227.1875 236.398438 227.148438 236.496094 227.109375 236.597656 C 226.902344 237.148438 226.695312 237.695312 226.488281 238.21875 C 226.398438 238.445312 226.308594 238.660156 226.21875 238.871094 C 226.058594 239.261719 225.894531 239.65625 225.734375 240.035156 C 225.632812 240.269531 225.527344 240.472656 225.421875 240.722656 C 225.273438 241.0625 225.117188 241.402344 224.984375 241.726562 C 224.875 241.960938 224.757812 242.167969 224.648438 242.40625 C 224.539062 242.648438 224.402344 242.917969 224.277344 243.160156 C 225.1875 247.082031 227.546875 249.902344 230.632812 250.722656 C 233.167969 251.398438 235.925781 250.695312 238.398438 248.742188 C 240.949219 246.726562 242.875 243.640625 243.832031 240.058594 C 244.746094 236.648438 244.492188 233.824219 243.078125 231.660156 C 241.847656 229.769531 239.675781 228.367188 236.804688 227.597656 C 234.171875 226.894531 231.882812 226.9375 229.964844 227.707031 C 229.824219 228.128906 229.703125 228.542969 229.585938 228.960938 Z M 229.585938 228.960938"/><path fill="#FF9300" d="M 280.542969 107.390625 C 282.707031 97.910156 283.707031 88.308594 283.546875 78.582031 C 283.386719 68.859375 282.070312 59.296875 279.59375 49.890625 C 279.457031 49.375 279.289062 48.867188 279.089844 48.371094 C 278.890625 47.878906 278.660156 47.394531 278.398438 46.929688 C 278.136719 46.464844 277.847656 46.015625 277.53125 45.585938 C 277.210938 45.15625 276.871094 44.75 276.5 44.363281 C 276.132812 43.976562 275.738281 43.617188 275.324219 43.277344 C 274.910156 42.941406 274.476562 42.632812 274.019531 42.351562 C 273.566406 42.070312 273.097656 41.820312 272.609375 41.597656 C 272.125 41.375 271.628906 41.183594 271.117188 41.027344 C 270.609375 40.867188 270.089844 40.742188 269.5625 40.648438 C 269.039062 40.554688 268.507812 40.496094 267.976562 40.46875 C 267.441406 40.445312 266.910156 40.453125 266.378906 40.492188 C 265.84375 40.535156 265.316406 40.609375 264.792969 40.71875 C 264.273438 40.828125 263.757812 40.96875 263.253906 41.140625 C 262.746094 41.3125 262.257812 41.519531 261.777344 41.753906 C 261.296875 41.988281 260.835938 42.253906 260.390625 42.550781 C 259.945312 42.84375 259.519531 43.164062 259.113281 43.511719 C 245.90625 54.886719 231.003906 64.875 228.269531 66.683594 C 234.453125 68.808594 240.386719 71.484375 246.070312 74.714844 C 251.753906 77.941406 257.09375 81.667969 262.085938 85.886719 C 269.375 92.078125 275.527344 99.246094 280.542969 107.390625 Z M 280.542969 107.390625"/><path fill="#FF9300" d="M 154.765625 241.921875 C 154.617188 241.613281 154.472656 241.285156 154.328125 240.960938 C 154.210938 240.703125 154.09375 240.460938 153.980469 240.195312 C 153.824219 239.839844 153.667969 239.460938 153.515625 239.089844 C 153.410156 238.84375 153.304688 238.605469 153.203125 238.351562 C 153.011719 237.871094 152.820312 237.367188 152.628906 236.863281 L 152.445312 236.390625 C 152.199219 235.71875 151.957031 235.027344 151.714844 234.324219 L 151.449219 233.53125 C 151.296875 233.066406 151.144531 232.605469 151.011719 232.128906 C 150.914062 231.816406 150.820312 231.492188 150.722656 231.171875 C 150.585938 230.734375 150.445312 230.292969 150.308594 229.820312 C 150.214844 229.476562 150.113281 229.125 150.015625 228.773438 C 149.921875 228.421875 149.796875 228.019531 149.691406 227.625 C 148.679688 227.261719 147.636719 227.082031 146.5625 227.09375 C 145.371094 227.105469 144.199219 227.273438 143.054688 227.59375 C 140.179688 228.363281 138.011719 229.765625 136.777344 231.652344 C 135.367188 233.816406 135.109375 236.644531 136.019531 240.054688 C 137.96875 247.359375 143.886719 252.140625 149.222656 250.71875 C 152.238281 249.914062 154.578125 247.183594 155.527344 243.386719 C 155.410156 243.160156 155.292969 242.914062 155.171875 242.675781 Z M 154.765625 241.921875"/><path fill="#FF9300" d="M 190.050781 221.507812 C 189.894531 221.546875 189.738281 221.546875 189.582031 221.507812 L 147.761719 210.265625 C 148.65625 215.808594 149.828125 221.292969 151.269531 226.714844 C 153.058594 233.34375 155.0625 238.769531 157.234375 242.832031 C 160.222656 248.449219 163.421875 251.292969 166.734375 251.292969 L 166.84375 251.292969 C 169.203125 251.261719 171.035156 250.445312 172.4375 248.804688 C 176.683594 243.835938 175.230469 233.160156 175.214844 233.050781 C 175.191406 232.925781 175.191406 232.804688 175.214844 232.683594 C 175.238281 232.558594 175.289062 232.449219 175.359375 232.34375 C 175.429688 232.242188 175.519531 232.160156 175.628906 232.09375 C 175.734375 232.027344 175.847656 231.988281 175.972656 231.96875 C 176.097656 231.953125 176.21875 231.957031 176.339844 231.992188 C 176.457031 232.023438 176.566406 232.082031 176.664062 232.160156 C 176.761719 232.238281 176.839844 232.332031 176.898438 232.441406 C 176.957031 232.554688 176.992188 232.671875 177 232.796875 C 177.058594 233.191406 178.148438 241.171875 175.621094 247.011719 L 204.023438 247.011719 C 201.492188 241.171875 202.585938 233.191406 202.640625 232.796875 C 202.675781 232.546875 202.792969 232.347656 202.992188 232.199219 C 203.195312 232.046875 203.417969 231.988281 203.664062 232.023438 C 203.910156 232.058594 204.109375 232.179688 204.261719 232.378906 C 204.410156 232.578125 204.46875 232.800781 204.429688 233.050781 C 204.429688 233.160156 202.957031 243.835938 207.207031 248.804688 C 208.609375 250.445312 210.4375 251.261719 212.796875 251.292969 L 212.886719 251.292969 C 216.242188 251.292969 219.460938 248.367188 222.53125 242.601562 C 224.332031 239.019531 225.808594 235.304688 226.960938 231.464844 C 227.398438 229.992188 227.875 228.441406 228.316406 226.820312 C 230.25 219.699219 231.417969 213.046875 231.867188 210.277344 Z M 190.050781 221.507812"/><path fill="#DB0E0E" d="M 226.386719 209.867188 C 214.78125 210.941406 201.792969 211.265625 187.363281 211.265625 C 175.738281 211.265625 165.042969 211.054688 155.253906 210.386719 L 189.800781 219.675781 Z M 226.386719 209.867188"/><path fill="#F00" d="M 119.550781 204.570312 C 117.296875 204.972656 98.746094 208.882812 99.757812 229.710938 C 105.402344 225.9375 127.996094 212.367188 148.167969 221.738281 C 146.816406 215.882812 146.039062 211.089844 145.816406 209.628906 C 136.054688 208.597656 127.304688 207.007812 119.550781 204.570312 Z M 119.550781 204.570312"/><path fill="#FF9300" d="M 112.664062 85.886719 C 117.648438 81.671875 122.980469 77.953125 128.65625 74.730469 C 134.332031 71.503906 140.253906 68.832031 146.425781 66.707031 C 143.792969 64.949219 128.820312 54.9375 115.550781 43.511719 C 115.148438 43.164062 114.722656 42.84375 114.277344 42.546875 C 113.832031 42.253906 113.367188 41.988281 112.890625 41.753906 C 112.410156 41.515625 111.917969 41.3125 111.414062 41.136719 C 110.910156 40.964844 110.394531 40.824219 109.871094 40.714844 C 109.347656 40.605469 108.820312 40.53125 108.289062 40.488281 C 107.757812 40.449219 107.222656 40.4375 106.691406 40.464844 C 106.15625 40.492188 105.628906 40.550781 105.101562 40.644531 C 104.574219 40.734375 104.058594 40.863281 103.546875 41.019531 C 103.039062 41.179688 102.539062 41.367188 102.054688 41.589844 C 101.570312 41.8125 101.097656 42.0625 100.644531 42.34375 C 100.191406 42.625 99.753906 42.933594 99.339844 43.269531 C 98.925781 43.609375 98.535156 43.96875 98.164062 44.355469 C 97.792969 44.742188 97.449219 45.148438 97.132812 45.578125 C 96.816406 46.007812 96.527344 46.457031 96.265625 46.921875 C 96.003906 47.386719 95.773438 47.867188 95.570312 48.363281 C 95.371094 48.859375 95.203125 49.367188 95.066406 49.882812 C 92.589844 59.304688 91.269531 68.890625 91.113281 78.632812 C 90.957031 88.378906 91.96875 98 94.140625 107.496094 C 99.167969 99.308594 105.339844 92.105469 112.664062 85.886719 Z M 112.664062 85.886719"/><path fill="#DB7700" d="M 280.296875 110.40625 C 280.171875 110.285156 280.085938 110.136719 280.042969 109.96875 C 267.695312 88.609375 245.976562 72.660156 218.953125 65.636719 C 213.96875 64.34375 208.917969 63.378906 203.808594 62.734375 C 201.058594 62.382812 198.265625 62.121094 195.433594 61.949219 C 192.777344 61.785156 190.089844 61.703125 187.375 61.703125 C 184.988281 61.703125 182.628906 61.765625 180.289062 61.886719 C 177.5625 62.03125 174.871094 62.261719 172.214844 62.578125 C 167.109375 63.167969 162.058594 64.078125 157.066406 65.3125 C 113.535156 76.105469 83.449219 109.941406 83.449219 152.320312 C 83.449219 181.289062 97.601562 195.675781 119.765625 202.75 C 119.859375 202.761719 119.945312 202.789062 120.027344 202.828125 C 138.242188 208.582031 161.816406 209.457031 187.375 209.457031 C 214.855469 209.457031 240.042969 208.453125 258.742188 201.449219 L 258.828125 201.421875 C 278.765625 193.925781 291.296875 179.585938 291.296875 152.320312 C 291.328125 144.972656 290.414062 137.746094 288.546875 130.640625 C 286.683594 123.535156 283.933594 116.789062 280.296875 110.40625 Z M 280.597656 170.339844 C 267.328125 180.109375 238.671875 189.984375 218.265625 175.015625 C 210.253906 169.136719 201.378906 166.253906 195.347656 164.890625 C 190.339844 163.761719 185.335938 163.761719 180.332031 164.890625 C 174.316406 166.253906 165.464844 169.113281 157.429688 175.015625 C 149.890625 180.550781 141.207031 182.691406 132.609375 182.691406 C 117.941406 182.691406 103.464844 176.484375 95.101562 170.339844 C 92.507812 168.425781 91.042969 165.992188 90.875 163.316406 C 90.636719 159.511719 92.863281 155.363281 97.453125 151.027344 C 107.445312 141.574219 122.996094 129.324219 143.019531 131.738281 C 155.304688 133.261719 167.152344 136.421875 178.566406 141.226562 C 180.039062 141.839844 181.554688 142.304688 183.117188 142.621094 C 184.683594 142.933594 186.261719 143.089844 187.855469 143.089844 C 189.453125 143.089844 191.03125 142.933594 192.59375 142.621094 C 194.160156 142.304688 195.675781 141.839844 197.148438 141.226562 C 208.5625 136.425781 220.410156 133.261719 232.695312 131.738281 C 252.710938 129.324219 268.269531 141.574219 278.230469 150.992188 C 282.835938 155.34375 285.058594 159.492188 284.808594 163.28125 C 284.65625 165.992188 283.199219 168.425781 280.597656 170.339844 Z M 280.597656 170.339844"/><path fill="#FF9300" d="M 280.296875 110.40625 C 280.171875 110.285156 280.085938 110.136719 280.042969 109.96875 C 267.695312 88.609375 245.976562 72.660156 218.953125 65.636719 C 213.96875 64.34375 208.917969 63.378906 203.808594 62.734375 C 201.058594 62.382812 198.265625 62.121094 195.433594 61.949219 C 192.777344 61.785156 190.089844 61.703125 187.375 61.703125 C 184.988281 61.703125 182.628906 61.765625 180.289062 61.886719 C 177.5625 62.03125 174.871094 62.261719 172.214844 62.578125 C 167.109375 63.167969 162.058594 64.078125 157.066406 65.3125 C 117.804688 75.050781 89.484375 103.527344 84.300781 140.113281 C 84.0625 142.746094 83.941406 145.429688 83.933594 148.164062 C 83.933594 177.132812 98.09375 191.511719 120.253906 198.59375 C 120.34375 198.601562 120.433594 198.628906 120.515625 198.671875 C 138.730469 204.425781 162.300781 205.300781 187.863281 205.300781 C 215.339844 205.300781 240.53125 204.289062 259.230469 197.289062 L 259.316406 197.261719 C 276.371094 190.851562 288 179.421875 291.007812 159.1875 C 291.195312 156.992188 291.296875 154.707031 291.296875 152.320312 C 291.328125 144.972656 290.414062 137.746094 288.546875 130.640625 C 286.683594 123.535156 283.933594 116.789062 280.296875 110.40625 Z M 280.296875 110.40625"/><path fill="#F00" d="M 233.867188 209.039062 C 233.867188 209.078125 233.867188 209.121094 233.867188 209.160156 C 233.867188 209.222656 233.058594 214.753906 231.433594 221.792969 C 251.632812 212.296875 274.316406 225.914062 279.976562 229.691406 C 280.960938 208.847656 261.660156 203.773438 259.171875 203.207031 C 251.746094 205.957031 243.320312 207.816406 233.867188 209.039062 Z M 233.867188 209.039062"/><path fill="#F00" d="M 276.992188 152.304688 C 267.296875 143.132812 252.171875 131.234375 232.914062 133.535156 C 220.792969 135.035156 209.097656 138.152344 197.835938 142.886719 C 196.253906 143.550781 194.625 144.050781 192.941406 144.390625 C 191.261719 144.726562 189.5625 144.894531 187.847656 144.898438 C 186.132812 144.894531 184.433594 144.726562 182.753906 144.390625 C 181.074219 144.050781 179.441406 143.550781 177.859375 142.886719 C 166.597656 138.152344 154.90625 135.035156 142.78125 133.535156 C 141.164062 133.339844 139.539062 133.242188 137.910156 133.242188 C 120.957031 133.242188 107.566406 143.925781 98.707031 152.304688 C 94.5625 156.222656 92.476562 159.984375 92.675781 163.183594 C 92.808594 165.378906 93.992188 167.277344 96.183594 168.890625 C 109.046875 178.339844 136.761719 187.972656 156.382812 173.570312 C 164.667969 167.492188 173.773438 164.539062 179.953125 163.140625 C 185.222656 161.949219 190.496094 161.949219 195.765625 163.140625 C 201.945312 164.539062 211.046875 167.492188 219.335938 173.570312 C 226.546875 178.863281 234.867188 180.914062 243.125 180.914062 C 257.332031 180.914062 271.398438 174.871094 279.519531 168.890625 C 281.710938 167.289062 282.875 165.378906 283.027344 163.183594 C 283.214844 159.984375 281.132812 156.222656 276.992188 152.304688 Z M 276.992188 152.304688"/><path fill="#DB7700" d="M 195.433594 61.96875 L 195.433594 111.890625 C 195.433594 112.386719 195.386719 112.882812 195.289062 113.371094 C 195.191406 113.859375 195.046875 114.332031 194.859375 114.792969 C 194.667969 115.25 194.433594 115.6875 194.15625 116.101562 C 193.882812 116.515625 193.566406 116.898438 193.214844 117.25 C 192.863281 117.601562 192.480469 117.917969 192.070312 118.195312 C 191.65625 118.46875 191.21875 118.703125 190.757812 118.894531 C 190.300781 119.085938 189.828125 119.226562 189.339844 119.324219 C 188.851562 119.421875 188.359375 119.472656 187.863281 119.472656 C 187.363281 119.472656 186.871094 119.421875 186.382812 119.324219 C 185.894531 119.226562 185.421875 119.085938 184.964844 118.894531 C 184.503906 118.703125 184.066406 118.46875 183.65625 118.195312 C 183.242188 117.917969 182.859375 117.601562 182.507812 117.25 C 182.15625 116.898438 181.839844 116.515625 181.566406 116.101562 C 181.289062 115.6875 181.054688 115.25 180.867188 114.792969 C 180.675781 114.332031 180.53125 113.859375 180.433594 113.371094 C 180.335938 112.882812 180.289062 112.386719 180.289062 111.890625 L 180.289062 61.910156 C 182.628906 61.785156 184.988281 61.726562 187.375 61.726562 C 190.09375 61.726562 192.78125 61.808594 195.433594 61.96875 Z M 195.433594 61.96875"/><path fill="#DB7700" d="M 218.953125 65.65625 L 218.953125 96.648438 C 218.953125 97.144531 218.90625 97.636719 218.808594 98.125 C 218.710938 98.613281 218.566406 99.085938 218.378906 99.546875 C 218.1875 100.007812 217.953125 100.445312 217.675781 100.859375 C 217.402344 101.273438 217.085938 101.65625 216.734375 102.007812 C 216.382812 102.359375 216 102.671875 215.589844 102.949219 C 215.175781 103.226562 214.738281 103.460938 214.277344 103.648438 C 213.820312 103.839844 213.347656 103.984375 212.859375 104.082031 C 212.371094 104.179688 211.878906 104.226562 211.382812 104.226562 C 210.882812 104.226562 210.390625 104.179688 209.902344 104.082031 C 209.417969 103.984375 208.941406 103.839844 208.484375 103.648438 C 208.023438 103.460938 207.585938 103.226562 207.175781 102.949219 C 206.761719 102.671875 206.378906 102.359375 206.027344 102.007812 C 205.675781 101.65625 205.359375 101.273438 205.085938 100.859375 C 204.808594 100.445312 204.574219 100.007812 204.386719 99.546875 C 204.195312 99.085938 204.050781 98.613281 203.953125 98.125 C 203.855469 97.636719 203.808594 97.144531 203.808594 96.648438 L 203.808594 62.757812 C 208.917969 63.402344 213.96875 64.367188 218.953125 65.65625 Z M 218.953125 65.65625"/><path fill="#DB7700" d="M 172.214844 62.597656 L 172.214844 97.933594 C 172.203125 98.421875 172.144531 98.90625 172.039062 99.386719 C 171.933594 99.863281 171.785156 100.328125 171.589844 100.777344 C 171.394531 101.226562 171.15625 101.65625 170.878906 102.058594 C 170.601562 102.460938 170.285156 102.835938 169.933594 103.175781 C 169.585938 103.519531 169.203125 103.824219 168.792969 104.09375 C 168.382812 104.363281 167.953125 104.589844 167.5 104.773438 C 167.046875 104.960938 166.578125 105.097656 166.097656 105.195312 C 165.617188 105.289062 165.132812 105.335938 164.640625 105.335938 C 164.152344 105.335938 163.667969 105.289062 163.1875 105.195312 C 162.707031 105.097656 162.238281 104.960938 161.785156 104.773438 C 161.332031 104.589844 160.898438 104.363281 160.488281 104.09375 C 160.078125 103.824219 159.699219 103.519531 159.347656 103.175781 C 159 102.835938 158.683594 102.460938 158.40625 102.058594 C 158.128906 101.65625 157.890625 101.226562 157.695312 100.777344 C 157.5 100.328125 157.347656 99.863281 157.242188 99.386719 C 157.136719 98.90625 157.078125 98.421875 157.066406 97.933594 L 157.066406 65.332031 C 162.058594 64.101562 167.109375 63.1875 172.214844 62.597656 Z M 172.214844 62.597656"/><path fill="#FFF" d="M 176.589844 234.21875 C 176.402344 233.949219 176.25 233.660156 176.132812 233.351562 C 176.011719 233.046875 175.933594 232.730469 175.890625 232.40625 C 175.851562 232.078125 175.847656 231.753906 175.882812 231.425781 C 175.917969 231.101562 175.996094 230.78125 176.105469 230.472656 C 176.21875 230.164062 176.367188 229.875 176.550781 229.601562 C 176.730469 229.328125 176.945312 229.082031 177.1875 228.859375 C 177.425781 228.636719 177.691406 228.449219 177.980469 228.289062 C 178.265625 228.128906 178.570312 228.007812 178.886719 227.921875 C 182.066406 227.046875 185.023438 230.117188 188.3125 230.289062 C 190.375 230.40625 192.304688 229.410156 194.171875 228.535156 C 196.039062 227.65625 198.140625 226.855469 200.125 227.425781 C 200.421875 227.527344 200.707031 227.652344 200.980469 227.804688 C 201.253906 227.960938 201.507812 228.140625 201.746094 228.34375 C 201.984375 228.546875 202.199219 228.769531 202.394531 229.015625 C 202.589844 229.261719 202.757812 229.523438 202.902344 229.800781 C 203.046875 230.078125 203.164062 230.367188 203.25 230.667969 C 203.339844 230.96875 203.398438 231.277344 203.425781 231.585938 C 203.453125 231.898438 203.453125 232.210938 203.421875 232.523438 C 203.390625 232.835938 203.328125 233.140625 203.238281 233.441406 C 201.742188 237.699219 204.117188 242.609375 205.390625 246.941406 C 195.308594 247.90625 185.183594 247.859375 175.058594 247.300781 C 175.984375 242.988281 176.492188 238.628906 176.589844 234.21875 Z M 176.589844 234.21875"/><path fill="#DB7700" d="M 273.75 99.246094 C 276.996094 87.214844 277.570312 71.222656 272.34375 58.945312 C 271.375 56.667969 269.679688 54.117188 267.210938 54.25 C 265.898438 54.316406 264.792969 55.128906 263.757812 55.910156 L 241.457031 72.722656 C 252.90625 78.222656 265.867188 89.28125 273.75 99.246094 Z M 273.75 99.246094"/><path fill="#DB7700" d="M 102.636719 99.246094 C 99.390625 87.214844 98.816406 71.222656 104.042969 58.945312 C 105.011719 56.667969 106.699219 54.117188 109.171875 54.25 C 110.488281 54.316406 111.589844 55.128906 112.628906 55.910156 L 134.925781 72.722656 C 123.480469 78.222656 110.519531 89.28125 102.636719 99.246094 Z M 102.636719 99.246094"/><path fill="#FFB55C" d="M 94.84375 109.738281 C 95.3125 109.082031 128.167969 64.839844 187.363281 64.839844 C 244.550781 64.839844 277.574219 106.839844 280.117188 110.1875 C 280.082031 110.121094 280.050781 110.050781 280.027344 109.976562 C 267.679688 88.617188 245.964844 72.667969 218.941406 65.644531 C 213.953125 64.355469 208.90625 63.386719 203.796875 62.742188 C 201.042969 62.390625 198.253906 62.128906 195.421875 61.957031 C 192.761719 61.792969 190.078125 61.710938 187.363281 61.710938 C 184.976562 61.710938 182.613281 61.773438 180.277344 61.894531 C 177.546875 62.039062 174.859375 62.269531 172.203125 62.585938 C 167.097656 63.175781 162.046875 64.085938 157.054688 65.320312 C 129.574219 72.132812 107.414062 88.167969 94.84375 109.738281 Z M 94.84375 109.738281"/><path fill="#E58720" d="M 195.433594 61.96875 L 195.433594 65.109375 C 192.804688 64.921875 190.117188 64.828125 187.375 64.824219 C 184.964844 64.824219 182.601562 64.898438 180.289062 65.042969 L 180.289062 61.910156 C 182.628906 61.785156 184.988281 61.726562 187.375 61.726562 C 190.09375 61.726562 192.78125 61.808594 195.433594 61.96875 Z M 195.433594 61.96875"/><path fill="#E58720" d="M 218.953125 65.65625 L 218.953125 69.296875 C 213.980469 67.859375 208.929688 66.765625 203.808594 66.019531 L 203.808594 62.757812 C 208.917969 63.402344 213.96875 64.367188 218.953125 65.65625 Z M 218.953125 65.65625"/><path fill="#E58720" d="M 172.214844 62.597656 L 172.214844 65.828125 C 167.097656 66.5 162.046875 67.515625 157.066406 68.875 L 157.066406 65.332031 C 162.058594 64.101562 167.109375 63.1875 172.214844 62.597656 Z M 172.214844 62.597656"/><path fill="#E58720" d="M 157.066406 65.332031 C 162.058594 64.101562 167.109375 63.1875 172.214844 62.597656 L 172.214844 65.828125 C 167.097656 66.5 162.046875 67.515625 157.066406 68.875 Z M 157.066406 65.332031"/><path fill="#E58720" d="M 187.375 61.726562 C 190.09375 61.726562 192.78125 61.808594 195.433594 61.96875 L 195.433594 65.109375 C 192.804688 64.921875 190.117188 64.828125 187.375 64.824219 C 184.964844 64.824219 182.601562 64.898438 180.289062 65.042969 L 180.289062 61.910156 C 182.628906 61.785156 184.988281 61.726562 187.375 61.726562 Z M 187.375 61.726562"/><path fill="#E58720" d="M 218.953125 65.65625 L 218.953125 69.296875 C 213.980469 67.859375 208.929688 66.765625 203.808594 66.019531 L 203.808594 62.757812 C 208.917969 63.402344 213.96875 64.367188 218.953125 65.65625 Z M 218.953125 65.65625"/><path fill="#FFB55C" d="M 211.382812 175.109375 C 211.382812 175.53125 211.34375 175.949219 211.273438 176.367188 C 211.203125 176.785156 211.097656 177.199219 210.953125 177.609375 C 210.8125 178.023438 210.636719 178.429688 210.425781 178.828125 C 210.214844 179.230469 209.96875 179.625 209.691406 180.015625 C 209.414062 180.402344 209.101562 180.78125 208.761719 181.148438 C 208.417969 181.519531 208.046875 181.878906 207.640625 182.230469 C 207.238281 182.578125 206.804688 182.914062 206.34375 183.238281 C 205.882812 183.5625 205.394531 183.875 204.882812 184.171875 C 204.367188 184.46875 203.828125 184.75 203.269531 185.015625 C 202.707031 185.28125 202.125 185.53125 201.519531 185.765625 C 200.914062 185.996094 200.292969 186.210938 199.652344 186.410156 C 199.011719 186.609375 198.355469 186.789062 197.683594 186.949219 C 197.011719 187.109375 196.328125 187.25 195.632812 187.371094 C 194.9375 187.492188 194.230469 187.59375 193.519531 187.675781 C 192.804688 187.757812 192.089844 187.820312 191.363281 187.863281 C 190.640625 187.902344 189.917969 187.921875 189.191406 187.921875 C 188.464844 187.921875 187.738281 187.902344 187.015625 187.863281 C 186.292969 187.820312 185.574219 187.757812 184.859375 187.675781 C 184.148438 187.59375 183.445312 187.492188 182.75 187.371094 C 182.050781 187.25 181.371094 187.109375 180.699219 186.949219 C 180.027344 186.789062 179.371094 186.609375 178.730469 186.410156 C 178.089844 186.210938 177.464844 185.996094 176.859375 185.765625 C 176.257812 185.53125 175.671875 185.28125 175.113281 185.015625 C 174.550781 184.75 174.011719 184.46875 173.5 184.171875 C 172.984375 183.875 172.496094 183.5625 172.035156 183.238281 C 171.574219 182.914062 171.140625 182.578125 170.738281 182.230469 C 170.335938 181.878906 169.960938 181.519531 169.617188 181.148438 C 169.277344 180.78125 168.964844 180.402344 168.6875 180.011719 C 168.410156 179.625 168.164062 179.230469 167.953125 178.828125 C 167.742188 178.429688 167.566406 178.023438 167.425781 177.609375 C 167.285156 177.199219 167.175781 176.785156 167.105469 176.367188 C 167.035156 175.949219 167 175.53125 167 175.109375 C 167 174.691406 167.035156 174.273438 167.105469 173.855469 C 167.175781 173.4375 167.285156 173.023438 167.425781 172.609375 C 167.566406 172.199219 167.742188 171.792969 167.953125 171.390625 C 168.164062 170.988281 168.410156 170.59375 168.6875 170.207031 C 168.964844 169.820312 169.277344 169.441406 169.617188 169.070312 C 169.960938 168.699219 170.335938 168.339844 170.738281 167.992188 C 171.140625 167.644531 171.574219 167.308594 172.035156 166.980469 C 172.496094 166.65625 172.984375 166.347656 173.5 166.050781 C 174.011719 165.753906 174.550781 165.472656 175.113281 165.207031 C 175.671875 164.941406 176.257812 164.691406 176.859375 164.457031 C 177.464844 164.222656 178.089844 164.007812 178.730469 163.8125 C 179.371094 163.613281 180.027344 163.433594 180.699219 163.273438 C 181.371094 163.113281 182.050781 162.972656 182.75 162.851562 C 183.445312 162.726562 184.148438 162.625 184.859375 162.542969 C 185.574219 162.460938 186.292969 162.402344 187.015625 162.359375 C 187.738281 162.320312 188.464844 162.296875 189.191406 162.296875 C 189.917969 162.296875 190.640625 162.320312 191.363281 162.359375 C 192.089844 162.402344 192.804688 162.460938 193.519531 162.542969 C 194.230469 162.625 194.9375 162.726562 195.632812 162.851562 C 196.328125 162.972656 197.011719 163.113281 197.683594 163.273438 C 198.355469 163.433594 199.011719 163.613281 199.652344 163.8125 C 200.292969 164.007812 200.914062 164.222656 201.519531 164.457031 C 202.125 164.691406 202.707031 164.941406 203.269531 165.207031 C 203.828125 165.472656 204.367188 165.753906 204.882812 166.050781 C 205.394531 166.347656 205.882812 166.65625 206.34375 166.980469 C 206.804688 167.308594 207.238281 167.644531 207.640625 167.992188 C 208.046875 168.339844 208.417969 168.699219 208.761719 169.070312 C 209.101562 169.441406 209.414062 169.820312 209.691406 170.207031 C 209.96875 170.59375 210.214844 170.988281 210.425781 171.390625 C 210.636719 171.792969 210.8125 172.199219 210.953125 172.609375 C 211.097656 173.023438 211.203125 173.4375 211.273438 173.855469 C 211.34375 174.273438 211.382812 174.691406 211.382812 175.109375 Z M 211.382812 175.109375"/><path fill="#DB0E0E" d="M 259.171875 203.210938 C 251.746094 205.957031 243.320312 207.816406 233.867188 209.039062 C 233.867188 209.078125 233.867188 209.121094 233.867188 209.160156 C 233.867188 209.222656 233.058594 214.753906 231.433594 221.792969 C 233.808594 220.679688 236.28125 219.851562 238.847656 219.308594 C 239.246094 218.535156 239.683594 217.785156 240.167969 217.058594 C 240.648438 216.335938 241.171875 215.640625 241.730469 214.976562 C 242.292969 214.3125 242.886719 213.679688 243.519531 213.082031 C 244.148438 212.484375 244.8125 211.921875 245.507812 211.398438 C 246.203125 210.875 246.921875 210.394531 247.671875 209.953125 C 248.421875 209.511719 249.191406 209.113281 249.988281 208.757812 C 250.78125 208.402344 251.589844 208.09375 252.421875 207.832031 C 253.25 207.566406 254.089844 207.351562 254.941406 207.183594 C 255.796875 207.015625 256.65625 206.894531 257.519531 206.824219 C 258.386719 206.753906 259.253906 206.730469 260.125 206.757812 C 260.992188 206.78125 261.855469 206.859375 262.71875 206.984375 C 263.578125 207.105469 264.429688 207.277344 265.269531 207.5 C 266.109375 207.71875 266.9375 207.984375 267.746094 208.300781 C 268.558594 208.613281 269.347656 208.96875 270.121094 209.371094 C 270.890625 209.777344 271.636719 210.21875 272.355469 210.707031 C 273.078125 211.195312 273.769531 211.71875 274.429688 212.285156 L 274.28125 212.074219 C 268.65625 205.636719 260.710938 203.5625 259.171875 203.210938 Z M 259.171875 203.210938"/><path fill="#DB0E0E" d="M 120.019531 203.640625 C 127.449219 206.390625 135.871094 208.242188 145.324219 209.46875 C 145.324219 209.511719 148.160156 210.296875 146.746094 210.265625 C 146.675781 210.265625 147.59375 215.183594 149.222656 222.222656 C 146.777344 221.070312 142.828125 220.269531 140.34375 219.738281 C 139.945312 218.964844 139.503906 218.214844 139.023438 217.492188 C 138.542969 216.765625 138.019531 216.074219 137.460938 215.40625 C 136.898438 214.742188 136.304688 214.109375 135.671875 213.511719 C 135.039062 212.914062 134.378906 212.355469 133.683594 211.832031 C 132.988281 211.308594 132.265625 210.824219 131.519531 210.382812 C 130.769531 209.941406 129.996094 209.542969 129.203125 209.191406 C 128.410156 208.835938 127.597656 208.527344 126.769531 208.261719 C 125.941406 208 125.101562 207.785156 124.25 207.617188 C 123.394531 207.449219 122.535156 207.328125 121.667969 207.257812 C 120.804688 207.183594 119.9375 207.164062 119.066406 207.1875 C 118.199219 207.214844 117.335938 207.289062 116.472656 207.414062 C 115.613281 207.539062 114.761719 207.710938 113.921875 207.929688 C 113.082031 208.152344 112.253906 208.417969 111.445312 208.730469 C 110.632812 209.042969 109.84375 209.402344 109.070312 209.804688 C 108.300781 210.207031 107.554688 210.652344 106.835938 211.136719 C 106.113281 211.625 105.421875 212.148438 104.761719 212.714844 L 104.914062 212.507812 C 110.535156 206.0625 118.484375 203.992188 120.019531 203.640625 Z M 120.019531 203.640625"/><path fill="#DB7700" d="M 219.820312 213.675781 C 222.140625 214.269531 223.929688 216.234375 224.84375 218.449219 C 225.753906 220.667969 225.914062 223.117188 225.890625 225.511719 C 225.839844 231.757812 224.730469 237.808594 222.5625 243.664062 C 225.59375 238.484375 227.984375 233.023438 229.738281 227.28125 C 231.488281 221.542969 232.554688 215.675781 232.933594 209.683594 C 232.082031 208.722656 230.433594 208.980469 229.226562 209.417969 C 225.84375 210.636719 223.207031 212.449219 219.820312 213.675781 Z M 219.820312 213.675781"/><path fill="#DB7700" d="M 160.972656 213.675781 C 158.65625 214.269531 156.867188 216.234375 155.953125 218.449219 C 155.042969 220.667969 154.882812 223.117188 154.90625 225.511719 C 154.953125 231.757812 156.0625 237.808594 158.234375 243.664062 C 155.203125 238.484375 152.8125 233.023438 151.058594 227.28125 C 149.308594 221.542969 148.242188 215.675781 147.863281 209.683594 C 148.714844 208.722656 150.359375 208.980469 151.570312 209.417969 C 154.953125 210.636719 157.589844 212.449219 160.972656 213.675781 Z M 160.972656 213.675781"/><path fill="#4F3215" d="M 157.636719 175.253906 C 165.628906 169.390625 174.441406 166.542969 180.4375 165.183594 C 185.398438 164.0625 190.363281 164.0625 195.324219 165.183594 C 201.304688 166.542969 210.117188 169.390625 218.125 175.253906 C 238.65625 190.324219 267.472656 180.382812 280.828125 170.578125 C 283.496094 168.613281 284.996094 166.105469 285.171875 163.316406 C 285.410156 159.414062 283.164062 155.195312 278.484375 150.773438 C 268.480469 141.3125 252.847656 129.011719 232.707031 131.457031 C 220.394531 132.984375 208.515625 136.148438 197.078125 140.960938 C 195.625 141.570312 194.128906 142.027344 192.585938 142.339844 C 191.039062 142.648438 189.480469 142.804688 187.90625 142.804688 C 186.332031 142.804688 184.773438 142.648438 183.230469 142.339844 C 181.6875 142.027344 180.1875 141.570312 178.738281 140.960938 C 167.296875 136.152344 155.421875 132.984375 143.105469 131.457031 C 122.9375 129.027344 107.332031 141.332031 97.328125 150.773438 C 92.652344 155.195312 90.402344 159.414062 90.644531 163.316406 C 90.8125 166.105469 92.316406 168.613281 94.988281 170.578125 C 103.394531 176.757812 117.933594 182.984375 132.695312 182.984375 C 141.296875 182.984375 150.03125 180.835938 157.636719 175.253906 Z M 96.363281 168.636719 C 94.261719 167.085938 93.125 165.246094 92.996094 163.167969 C 92.804688 160.058594 94.855469 156.375 98.933594 152.523438 C 107.757812 144.183594 121.089844 133.542969 137.9375 133.542969 C 139.550781 133.542969 141.15625 133.640625 142.761719 133.832031 C 154.847656 135.332031 166.511719 138.441406 177.742188 143.164062 C 179.34375 143.835938 180.992188 144.339844 182.695312 144.683594 C 184.394531 145.023438 186.113281 145.195312 187.847656 145.195312 C 189.582031 145.195312 191.300781 145.023438 193.003906 144.683594 C 194.703125 144.339844 196.355469 143.835938 197.953125 143.164062 C 209.1875 138.441406 220.851562 135.332031 232.941406 133.832031 C 252.082031 131.53125 267.140625 143.398438 276.789062 152.523438 C 280.863281 156.375 282.925781 160.058594 282.726562 163.167969 C 282.59375 165.246094 281.460938 167.085938 279.359375 168.636719 C 266.566406 178.039062 239.019531 187.621094 219.515625 173.316406 C 211.183594 167.199219 202.042969 164.242188 195.835938 162.832031 C 190.519531 161.632812 185.207031 161.632812 179.890625 162.832031 C 173.679688 164.242188 164.542969 167.199219 156.210938 173.316406 C 136.714844 187.621094 109.15625 178.039062 96.363281 168.636719 Z M 96.363281 168.636719"/><path fill="#4F3215" d="M 203.949219 173.890625 C 203.796875 173.835938 203.644531 173.8125 203.484375 173.820312 C 203.324219 173.828125 203.171875 173.867188 203.027344 173.933594 C 202.882812 174.003906 202.757812 174.09375 202.648438 174.210938 C 202.542969 174.332031 202.460938 174.464844 202.40625 174.613281 C 202.183594 175.246094 201.863281 175.828125 201.453125 176.359375 C 201.039062 176.886719 200.550781 177.339844 199.992188 177.707031 C 199.433594 178.078125 198.828125 178.351562 198.179688 178.523438 C 197.53125 178.695312 196.875 178.761719 196.203125 178.71875 C 195.535156 178.679688 194.890625 178.53125 194.269531 178.277344 C 193.648438 178.023438 193.082031 177.679688 192.574219 177.242188 C 192.0625 176.804688 191.636719 176.296875 191.292969 175.71875 C 190.953125 175.140625 190.707031 174.523438 190.566406 173.867188 C 194.476562 173.503906 197.425781 171.90625 197.425781 169.988281 C 197.425781 167.792969 193.582031 166.039062 188.851562 166.039062 C 184.121094 166.039062 180.28125 167.792969 180.28125 169.988281 C 180.28125 171.964844 183.417969 173.601562 187.515625 173.894531 C 187.371094 174.550781 187.125 175.164062 186.777344 175.738281 C 186.433594 176.3125 186.007812 176.816406 185.496094 177.253906 C 184.988281 177.6875 184.421875 178.03125 183.800781 178.28125 C 183.179688 178.535156 182.535156 178.679688 181.867188 178.71875 C 181.199219 178.761719 180.539062 178.695312 179.894531 178.519531 C 179.246094 178.347656 178.644531 178.074219 178.085938 177.703125 C 177.527344 177.332031 177.042969 176.882812 176.628906 176.355469 C 176.21875 175.828125 175.898438 175.246094 175.675781 174.613281 C 175.621094 174.464844 175.542969 174.332031 175.433594 174.210938 C 175.328125 174.09375 175.199219 174 175.054688 173.933594 C 174.914062 173.867188 174.761719 173.828125 174.601562 173.820312 C 174.441406 173.8125 174.289062 173.835938 174.136719 173.890625 C 173.988281 173.945312 173.851562 174.023438 173.734375 174.132812 C 173.617188 174.238281 173.523438 174.367188 173.457031 174.511719 C 173.390625 174.65625 173.351562 174.808594 173.34375 174.964844 C 173.335938 175.125 173.359375 175.28125 173.414062 175.429688 C 173.730469 176.265625 174.160156 177.03125 174.707031 177.734375 C 175.257812 178.4375 175.894531 179.042969 176.625 179.550781 C 177.355469 180.058594 178.144531 180.449219 178.992188 180.71875 C 179.839844 180.992188 180.710938 181.128906 181.601562 181.136719 C 182.050781 181.136719 182.496094 181.097656 182.941406 181.023438 C 184.242188 180.777344 185.425781 180.261719 186.496094 179.480469 C 187.5625 178.695312 188.410156 177.722656 189.035156 176.554688 C 189.667969 177.71875 190.515625 178.6875 191.585938 179.464844 C 192.65625 180.242188 193.839844 180.75 195.140625 180.988281 C 195.585938 181.0625 196.035156 181.101562 196.484375 181.101562 C 197.375 181.09375 198.246094 180.957031 199.09375 180.683594 C 199.941406 180.414062 200.730469 180.023438 201.460938 179.515625 C 202.191406 179.007812 202.832031 178.402344 203.378906 177.699219 C 203.925781 176.996094 204.355469 176.230469 204.671875 175.394531 C 204.722656 175.246094 204.742188 175.097656 204.730469 174.941406 C 204.722656 174.785156 204.683594 174.636719 204.613281 174.496094 C 204.546875 174.355469 204.457031 174.234375 204.339844 174.128906 C 204.226562 174.023438 204.09375 173.945312 203.949219 173.890625 Z M 203.949219 173.890625"/><path fill="#4F3215" d="M 232.804688 164.308594 C 233.445312 164.308594 234.078125 164.246094 234.703125 164.121094 C 235.332031 163.996094 235.941406 163.8125 236.53125 163.566406 C 237.121094 163.320312 237.679688 163.023438 238.214844 162.667969 C 238.746094 162.3125 239.234375 161.90625 239.6875 161.453125 C 240.140625 161.003906 240.542969 160.511719 240.898438 159.976562 C 241.253906 159.445312 241.554688 158.882812 241.796875 158.292969 C 242.042969 157.703125 242.226562 157.09375 242.351562 156.464844 C 242.476562 155.835938 242.539062 155.203125 242.539062 154.5625 C 242.539062 153.925781 242.476562 153.289062 242.351562 152.664062 C 242.226562 152.035156 242.042969 151.425781 241.796875 150.835938 C 241.554688 150.242188 241.253906 149.679688 240.898438 149.148438 C 240.542969 148.617188 240.140625 148.125 239.6875 147.671875 C 239.234375 147.21875 238.742188 146.816406 238.210938 146.460938 C 237.679688 146.105469 237.117188 145.804688 236.527344 145.558594 C 235.9375 145.316406 235.328125 145.132812 234.703125 145.007812 C 234.074219 144.882812 233.441406 144.820312 232.800781 144.820312 C 232.164062 144.820312 231.53125 144.882812 230.902344 145.007812 C 230.277344 145.132812 229.667969 145.316406 229.078125 145.5625 C 228.488281 145.808594 227.925781 146.109375 227.394531 146.464844 C 226.863281 146.820312 226.371094 147.222656 225.917969 147.675781 C 225.46875 148.128906 225.0625 148.621094 224.710938 149.152344 C 224.355469 149.6875 224.054688 150.246094 223.808594 150.839844 C 223.566406 151.429688 223.382812 152.039062 223.257812 152.667969 C 223.132812 153.292969 223.070312 153.929688 223.070312 154.570312 C 223.070312 155.207031 223.132812 155.84375 223.257812 156.46875 C 223.382812 157.097656 223.566406 157.707031 223.8125 158.296875 C 224.054688 158.886719 224.355469 159.449219 224.710938 159.980469 C 225.066406 160.515625 225.46875 161.007812 225.921875 161.457031 C 226.371094 161.910156 226.863281 162.316406 227.394531 162.667969 C 227.929688 163.023438 228.488281 163.324219 229.078125 163.570312 C 229.671875 163.8125 230.277344 164 230.90625 164.121094 C 231.53125 164.246094 232.164062 164.308594 232.804688 164.308594 Z M 232.804688 164.308594"/><path fill="#4F3215" d="M 149.808594 146.285156 C 150.351562 146.621094 150.855469 147.007812 151.324219 147.445312 C 151.792969 147.878906 152.210938 148.359375 152.585938 148.878906 C 152.960938 149.394531 153.28125 149.945312 153.546875 150.527344 C 153.808594 151.109375 154.015625 151.714844 154.164062 152.335938 C 154.308594 152.957031 154.394531 153.589844 154.417969 154.230469 C 154.441406 154.867188 154.398438 155.503906 154.296875 156.136719 C 154.195312 156.765625 154.03125 157.382812 153.808594 157.980469 C 153.585938 158.582031 153.304688 159.152344 152.96875 159.699219 C 152.632812 160.242188 152.246094 160.75 151.8125 161.214844 C 151.375 161.683594 150.898438 162.105469 150.382812 162.480469 C 149.863281 162.855469 149.3125 163.171875 148.730469 163.4375 C 148.148438 163.703125 147.546875 163.910156 146.925781 164.058594 C 146.304688 164.207031 145.671875 164.289062 145.035156 164.3125 C 144.394531 164.335938 143.761719 164.296875 143.128906 164.191406 C 142.5 164.089844 141.882812 163.925781 141.285156 163.703125 C 140.6875 163.480469 140.117188 163.199219 139.570312 162.863281 C 139.027344 162.527344 138.523438 162.140625 138.054688 161.703125 C 137.585938 161.269531 137.167969 160.789062 136.792969 160.273438 C 136.417969 159.753906 136.097656 159.203125 135.832031 158.621094 C 135.570312 158.039062 135.363281 157.4375 135.214844 156.8125 C 135.070312 156.191406 134.984375 155.558594 134.960938 154.917969 C 134.9375 154.28125 134.980469 153.644531 135.082031 153.011719 C 135.183594 152.382812 135.347656 151.765625 135.570312 151.167969 C 135.792969 150.566406 136.074219 149.996094 136.410156 149.453125 C 136.746094 148.90625 137.132812 148.402344 137.566406 147.933594 C 138.003906 147.464844 138.480469 147.042969 139 146.667969 C 139.515625 146.296875 140.066406 145.976562 140.648438 145.710938 C 141.230469 145.445312 141.832031 145.238281 142.453125 145.089844 C 143.074219 144.945312 143.707031 144.859375 144.34375 144.835938 C 144.984375 144.8125 145.617188 144.851562 146.25 144.957031 C 146.878906 145.058594 147.496094 145.222656 148.09375 145.445312 C 148.691406 145.667969 149.265625 145.949219 149.808594 146.285156 Z M 149.808594 146.285156"/><path fill="#4F3215" d="M 238.097656 232.929688 C 238.097656 233.222656 238.042969 233.503906 237.929688 233.773438 C 237.816406 234.042969 237.660156 234.28125 237.453125 234.488281 C 237.246094 234.695312 237.007812 234.855469 236.738281 234.96875 C 236.46875 235.078125 236.1875 235.136719 235.894531 235.136719 C 235.605469 235.136719 235.324219 235.078125 235.054688 234.96875 C 234.785156 234.855469 234.546875 234.695312 234.339844 234.488281 C 234.132812 234.28125 233.972656 234.042969 233.863281 233.773438 C 233.75 233.503906 233.695312 233.222656 233.695312 232.929688 C 233.695312 232.640625 233.75 232.359375 233.863281 232.089844 C 233.972656 231.816406 234.132812 231.578125 234.339844 231.375 C 234.546875 231.167969 234.785156 231.007812 235.054688 230.894531 C 235.324219 230.785156 235.605469 230.726562 235.894531 230.726562 C 236.1875 230.726562 236.46875 230.785156 236.738281 230.894531 C 237.007812 231.007812 237.246094 231.167969 237.453125 231.375 C 237.660156 231.578125 237.816406 231.816406 237.929688 232.089844 C 238.042969 232.359375 238.097656 232.640625 238.097656 232.929688 Z M 238.097656 232.929688"/><path fill="#4F3215" d="M 242.496094 237.785156 C 242.496094 238.078125 242.441406 238.359375 242.328125 238.628906 C 242.214844 238.898438 242.058594 239.136719 241.851562 239.34375 C 241.644531 239.550781 241.40625 239.710938 241.136719 239.820312 C 240.867188 239.933594 240.585938 239.988281 240.292969 239.988281 C 240.003906 239.988281 239.722656 239.933594 239.453125 239.820312 C 239.183594 239.710938 238.945312 239.550781 238.738281 239.34375 C 238.53125 239.136719 238.371094 238.898438 238.261719 238.628906 C 238.148438 238.359375 238.09375 238.078125 238.09375 237.785156 C 238.09375 237.492188 238.148438 237.210938 238.261719 236.941406 C 238.371094 236.671875 238.53125 236.433594 238.738281 236.226562 C 238.945312 236.019531 239.183594 235.863281 239.453125 235.75 C 239.722656 235.636719 240.003906 235.582031 240.292969 235.582031 C 240.585938 235.582031 240.867188 235.636719 241.136719 235.75 C 241.40625 235.863281 241.644531 236.019531 241.851562 236.226562 C 242.058594 236.433594 242.214844 236.671875 242.328125 236.941406 C 242.441406 237.210938 242.496094 237.492188 242.496094 237.785156 Z M 242.496094 237.785156"/><path fill="#4F3215" d="M 229.195312 239.875 C 229.082031 240.160156 229 240.453125 228.945312 240.75 C 228.890625 241.050781 228.867188 241.355469 228.871094 241.660156 C 228.878906 241.964844 228.914062 242.269531 228.980469 242.566406 C 229.046875 242.863281 229.144531 243.152344 229.269531 243.429688 C 229.394531 243.710938 229.542969 243.972656 229.722656 244.222656 C 229.898438 244.46875 230.097656 244.699219 230.324219 244.90625 C 230.546875 245.117188 230.789062 245.300781 231.046875 245.460938 C 231.308594 245.617188 231.582031 245.75 231.867188 245.855469 C 232.15625 245.960938 232.449219 246.035156 232.75 246.082031 C 233.050781 246.128906 233.355469 246.140625 233.660156 246.125 C 233.964844 246.113281 234.265625 246.066406 234.558594 245.992188 C 234.855469 245.914062 235.140625 245.8125 235.417969 245.679688 C 235.691406 245.542969 235.949219 245.386719 236.191406 245.199219 C 236.433594 245.015625 236.65625 244.808594 236.859375 244.578125 C 237.058594 244.351562 237.238281 244.101562 237.386719 243.835938 C 237.539062 243.574219 237.664062 243.296875 237.761719 243.003906 C 238.636719 240.640625 236.78125 239.734375 234.417969 238.871094 C 232.054688 238.003906 230.058594 237.503906 229.195312 239.875 Z M 229.195312 239.875"/><path fill="#4F3215" d="M 146.496094 232.714844 C 146.496094 233.007812 146.441406 233.289062 146.328125 233.558594 C 146.214844 233.828125 146.058594 234.066406 145.851562 234.273438 C 145.644531 234.480469 145.40625 234.640625 145.136719 234.753906 C 144.867188 234.863281 144.585938 234.917969 144.292969 234.917969 C 144.003906 234.917969 143.722656 234.863281 143.453125 234.753906 C 143.183594 234.640625 142.945312 234.480469 142.738281 234.273438 C 142.53125 234.066406 142.371094 233.828125 142.261719 233.558594 C 142.148438 233.289062 142.09375 233.007812 142.09375 232.714844 C 142.09375 232.425781 142.148438 232.144531 142.261719 231.875 C 142.371094 231.601562 142.53125 231.363281 142.738281 231.160156 C 142.945312 230.953125 143.183594 230.792969 143.453125 230.679688 C 143.722656 230.570312 144.003906 230.511719 144.292969 230.511719 C 144.585938 230.511719 144.867188 230.570312 145.136719 230.679688 C 145.40625 230.792969 145.644531 230.953125 145.851562 231.160156 C 146.058594 231.363281 146.214844 231.601562 146.328125 231.875 C 146.441406 232.144531 146.496094 232.425781 146.496094 232.714844 Z M 146.496094 232.714844"/><path fill="#4F3215" d="M 142.101562 237.570312 C 142.101562 237.863281 142.046875 238.144531 141.933594 238.414062 C 141.824219 238.683594 141.664062 238.921875 141.457031 239.128906 C 141.25 239.335938 141.011719 239.496094 140.742188 239.605469 C 140.472656 239.71875 140.191406 239.773438 139.902344 239.773438 C 139.609375 239.773438 139.328125 239.71875 139.058594 239.605469 C 138.789062 239.496094 138.550781 239.335938 138.34375 239.128906 C 138.136719 238.921875 137.980469 238.683594 137.867188 238.414062 C 137.753906 238.144531 137.699219 237.863281 137.699219 237.570312 C 137.699219 237.277344 137.753906 236.996094 137.867188 236.726562 C 137.980469 236.457031 138.136719 236.21875 138.34375 236.011719 C 138.550781 235.804688 138.789062 235.648438 139.058594 235.535156 C 139.328125 235.421875 139.609375 235.367188 139.902344 235.367188 C 140.191406 235.367188 140.472656 235.421875 140.742188 235.535156 C 141.011719 235.648438 141.25 235.804688 141.457031 236.011719 C 141.664062 236.21875 141.824219 236.457031 141.933594 236.726562 C 142.046875 236.996094 142.101562 237.277344 142.101562 237.570312 Z M 142.101562 237.570312"/><path fill="#4F3215" d="M 145.796875 238.652344 C 143.429688 239.527344 141.589844 240.40625 142.453125 242.789062 C 142.550781 243.078125 142.675781 243.355469 142.828125 243.617188 C 142.980469 243.878906 143.15625 244.125 143.359375 244.351562 C 143.5625 244.582031 143.785156 244.785156 144.027344 244.96875 C 144.269531 245.152344 144.527344 245.308594 144.800781 245.441406 C 145.074219 245.574219 145.359375 245.675781 145.65625 245.75 C 145.949219 245.824219 146.25 245.867188 146.550781 245.882812 C 146.855469 245.898438 147.15625 245.882812 147.457031 245.835938 C 147.757812 245.789062 148.050781 245.714844 148.335938 245.609375 C 148.621094 245.507812 148.894531 245.375 149.152344 245.214844 C 149.414062 245.058594 149.652344 244.875 149.875 244.667969 C 150.097656 244.460938 150.300781 244.230469 150.476562 243.984375 C 150.652344 243.738281 150.804688 243.476562 150.929688 243.199219 C 151.054688 242.921875 151.148438 242.632812 151.21875 242.335938 C 151.285156 242.039062 151.324219 241.738281 151.332031 241.4375 C 151.335938 241.132812 151.316406 240.828125 151.261719 240.53125 C 151.210938 240.230469 151.128906 239.9375 151.015625 239.65625 C 150.128906 237.289062 148.140625 237.785156 145.796875 238.652344 Z M 145.796875 238.652344"/><g clip-path="url(#a)"><path fill="#4F3215" d="M 262.730469 202.117188 C 283.367188 193.292969 293.425781 176.992188 293.425781 152.320312 C 293.453125 144.832031 292.515625 137.460938 290.613281 130.21875 C 288.710938 122.972656 285.910156 116.097656 282.207031 109.585938 C 284.617188 99.679688 285.777344 89.625 285.679688 79.425781 C 285.585938 69.230469 284.242188 59.199219 281.648438 49.339844 C 281.488281 48.734375 281.292969 48.144531 281.058594 47.566406 C 280.824219 46.988281 280.554688 46.425781 280.25 45.882812 C 279.945312 45.339844 279.605469 44.816406 279.234375 44.3125 C 278.867188 43.8125 278.464844 43.335938 278.03125 42.886719 C 277.601562 42.4375 277.144531 42.015625 276.660156 41.621094 C 276.175781 41.230469 275.667969 40.871094 275.136719 40.542969 C 274.609375 40.214844 274.058594 39.917969 273.492188 39.660156 C 272.925781 39.402344 272.34375 39.179688 271.75 38.996094 C 271.152344 38.8125 270.546875 38.664062 269.933594 38.558594 C 269.320312 38.449219 268.703125 38.378906 268.082031 38.351562 C 267.457031 38.320312 266.835938 38.328125 266.214844 38.378906 C 265.59375 38.429688 264.976562 38.515625 264.367188 38.644531 C 263.757812 38.769531 263.15625 38.9375 262.570312 39.140625 C 261.980469 39.34375 261.40625 39.582031 260.847656 39.859375 C 260.289062 40.132812 259.75 40.445312 259.230469 40.789062 C 258.710938 41.132812 258.214844 41.507812 257.742188 41.914062 C 243.316406 54.332031 226.84375 65.109375 226.679688 65.210938 C 226.488281 65.328125 226.34375 65.488281 226.242188 65.6875 C 219.953125 63.675781 213.546875 62.160156 207.023438 61.144531 C 200.5 60.128906 193.933594 59.621094 187.332031 59.621094 C 180.730469 59.625 174.167969 60.136719 167.644531 61.160156 C 161.121094 62.179688 154.71875 63.699219 148.429688 65.714844 C 148.332031 65.503906 148.183594 65.335938 147.992188 65.210938 C 147.820312 65.109375 131.328125 54.332031 116.921875 41.914062 C 116.449219 41.507812 115.953125 41.132812 115.433594 40.792969 C 114.914062 40.449219 114.375 40.136719 113.816406 39.863281 C 113.257812 39.589844 112.683594 39.351562 112.09375 39.148438 C 111.503906 38.945312 110.90625 38.78125 110.296875 38.652344 C 109.6875 38.527344 109.070312 38.441406 108.449219 38.390625 C 107.832031 38.34375 107.207031 38.332031 106.585938 38.363281 C 105.964844 38.394531 105.347656 38.460938 104.734375 38.570312 C 104.121094 38.679688 103.515625 38.824219 102.921875 39.011719 C 102.328125 39.195312 101.746094 39.417969 101.179688 39.675781 C 100.613281 39.933594 100.066406 40.226562 99.535156 40.554688 C 99.007812 40.882812 98.5 41.242188 98.015625 41.632812 C 97.53125 42.023438 97.074219 42.445312 96.644531 42.894531 C 96.210938 43.34375 95.8125 43.820312 95.441406 44.320312 C 95.070312 44.820312 94.730469 45.34375 94.425781 45.886719 C 94.121094 46.429688 93.851562 46.992188 93.617188 47.566406 C 93.382812 48.144531 93.1875 48.734375 93.027344 49.339844 C 90.429688 59.21875 89.085938 69.269531 88.996094 79.484375 C 88.90625 89.703125 90.074219 99.773438 92.496094 109.699219 C 88.816406 116.195312 86.027344 123.054688 84.136719 130.28125 C 82.246094 137.507812 81.316406 144.851562 81.34375 152.320312 C 81.34375 177.304688 91.628906 193.71875 112.789062 202.453125 C 113.667969 202.820312 114.59375 203.171875 115.511719 203.507812 C 108.808594 205.832031 96.054688 212.726562 97.785156 231.457031 C 97.828125 231.925781 98.066406 232.257812 98.496094 232.449219 C 98.925781 232.640625 99.328125 232.59375 99.707031 232.308594 C 99.96875 232.109375 126.21875 212.757812 148.464844 224.21875 C 148.546875 224.539062 148.625 224.863281 148.710938 225.191406 C 146.605469 224.839844 144.53125 224.960938 142.484375 225.558594 C 139.097656 226.433594 136.507812 228.167969 134.984375 230.5 C 133.230469 233.1875 132.886719 236.582031 133.957031 240.59375 C 135.917969 247.972656 141.589844 253.070312 147.300781 253.070312 C 148.128906 253.070312 148.9375 252.964844 149.734375 252.753906 C 152.832031 251.925781 155.339844 249.546875 156.75 246.195312 C 159.785156 250.980469 163.136719 253.40625 166.730469 253.40625 L 166.851562 253.40625 C 169.808594 253.363281 172.222656 252.273438 174.015625 250.175781 C 174.296875 249.84375 174.558594 249.492188 174.800781 249.128906 L 204.660156 249.128906 C 204.699219 249.128906 204.742188 249.128906 204.78125 249.128906 C 205.027344 249.5 205.289062 249.851562 205.574219 250.191406 C 207.367188 252.289062 209.78125 253.378906 212.746094 253.421875 C 216.421875 253.476562 219.851562 250.992188 222.953125 246.042969 C 224.359375 249.484375 226.898438 251.917969 230.054688 252.765625 C 230.867188 252.980469 231.691406 253.089844 232.527344 253.085938 C 233.835938 253.054688 235.101562 252.808594 236.324219 252.351562 C 237.550781 251.890625 238.664062 251.238281 239.667969 250.402344 C 242.570312 248.105469 244.757812 244.628906 245.828125 240.609375 C 246.898438 236.585938 246.554688 233.195312 244.800781 230.511719 C 243.28125 228.179688 240.6875 226.464844 237.308594 225.566406 C 235.195312 224.957031 233.054688 224.847656 230.890625 225.246094 L 231.125 224.296875 C 253.40625 212.679688 279.761719 232.121094 280.027344 232.316406 C 280.40625 232.597656 280.808594 232.644531 281.238281 232.453125 C 281.667969 232.261719 281.902344 231.933594 281.949219 231.464844 C 283.757812 212.152344 269.449219 204.585938 262.730469 202.117188 Z M 259.3125 43.742188 C 259.707031 43.402344 260.121094 43.085938 260.554688 42.800781 C 260.992188 42.511719 261.441406 42.253906 261.910156 42.023438 C 262.378906 41.792969 262.859375 41.59375 263.351562 41.421875 C 263.84375 41.253906 264.34375 41.117188 264.855469 41.011719 C 265.367188 40.90625 265.882812 40.832031 266.402344 40.789062 C 266.921875 40.75 267.441406 40.742188 267.960938 40.769531 C 268.480469 40.792969 269 40.851562 269.511719 40.941406 C 270.023438 41.03125 270.53125 41.15625 271.027344 41.308594 C 271.527344 41.464844 272.011719 41.652344 272.484375 41.867188 C 272.960938 42.082031 273.417969 42.328125 273.863281 42.605469 C 274.304688 42.878906 274.730469 43.179688 275.136719 43.507812 C 275.539062 43.835938 275.921875 44.1875 276.285156 44.566406 C 276.644531 44.941406 276.980469 45.339844 277.289062 45.757812 C 277.597656 46.179688 277.882812 46.617188 278.136719 47.070312 C 278.390625 47.527344 278.617188 47.996094 278.8125 48.480469 C 279.007812 48.960938 279.171875 49.457031 279.304688 49.960938 C 281.742188 59.222656 283.054688 68.644531 283.242188 78.21875 C 283.429688 87.796875 282.484375 97.261719 280.410156 106.609375 C 275.449219 98.691406 269.40625 91.710938 262.289062 85.660156 C 252.34375 77.253906 241.230469 70.902344 228.941406 66.605469 C 232.652344 64.128906 246.746094 54.574219 259.3125 43.742188 Z M 95.375 49.960938 C 95.507812 49.457031 95.671875 48.960938 95.867188 48.480469 C 96.0625 47.996094 96.289062 47.527344 96.542969 47.070312 C 96.796875 46.617188 97.078125 46.179688 97.390625 45.757812 C 97.699219 45.339844 98.035156 44.941406 98.394531 44.566406 C 98.757812 44.1875 99.140625 43.835938 99.542969 43.507812 C 99.949219 43.179688 100.375 42.878906 100.816406 42.605469 C 101.261719 42.328125 101.71875 42.082031 102.191406 41.867188 C 102.667969 41.652344 103.152344 41.464844 103.652344 41.308594 C 104.148438 41.15625 104.652344 41.03125 105.167969 40.941406 C 105.679688 40.851562 106.199219 40.792969 106.71875 40.769531 C 107.238281 40.742188 107.757812 40.75 108.277344 40.789062 C 108.796875 40.832031 109.3125 40.90625 109.824219 41.011719 C 110.332031 41.117188 110.835938 41.253906 111.328125 41.421875 C 111.820312 41.59375 112.300781 41.792969 112.769531 42.023438 C 113.238281 42.253906 113.6875 42.511719 114.125 42.800781 C 114.558594 43.085938 114.972656 43.402344 115.367188 43.742188 C 127.96875 54.59375 142.117188 64.183594 145.773438 66.628906 C 133.503906 70.917969 122.402344 77.265625 112.472656 85.660156 C 105.320312 91.738281 99.257812 98.761719 94.28125 106.730469 C 92.195312 97.359375 91.246094 87.875 91.429688 78.28125 C 91.613281 68.683594 92.929688 59.242188 95.375 49.960938 Z M 83.75 152.320312 C 83.75 100.847656 128.300781 62.035156 187.375 62.035156 C 228.722656 62.035156 262.945312 81.050781 279.769531 110.113281 C 279.824219 110.296875 279.917969 110.457031 280.050781 110.597656 C 283.671875 116.953125 286.410156 123.667969 288.269531 130.742188 C 290.128906 137.816406 291.042969 145.015625 291.011719 152.328125 C 291.011719 204.886719 244.097656 209.167969 187.386719 209.167969 C 161.769531 209.167969 138.148438 208.289062 119.941406 202.484375 C 97.847656 195.425781 83.75 181.125 83.75 152.320312 Z M 223.03125 210.453125 L 189.8125 219.386719 L 158.214844 210.886719 C 167.195312 211.394531 176.910156 211.570312 187.375 211.570312 C 200.414062 211.570312 212.289062 211.300781 223.03125 210.453125 Z M 115.105469 221.550781 C 109.804688 223.507812 104.789062 226.035156 100.0625 229.132812 C 99.414062 209.257812 117.046875 205.335938 119.542969 204.878906 C 127.238281 207.289062 135.910156 208.875 145.582031 209.890625 C 145.839844 211.523438 146.558594 215.886719 147.777344 221.210938 C 138.34375 217.054688 127.132812 217.15625 115.105469 221.550781 Z M 149.125 250.425781 C 143.957031 251.808594 138.195312 247.121094 136.292969 239.976562 C 135.414062 236.652344 135.648438 233.910156 137.011719 231.820312 C 138.203125 229.996094 140.316406 228.632812 143.113281 227.871094 C 144.238281 227.558594 145.382812 227.394531 146.546875 227.382812 C 147.535156 227.367188 148.492188 227.511719 149.429688 227.824219 C 149.53125 228.1875 149.636719 228.539062 149.734375 228.898438 C 149.835938 229.257812 149.929688 229.582031 150.023438 229.917969 C 150.160156 230.390625 150.304688 230.847656 150.464844 231.308594 C 150.554688 231.605469 150.648438 231.917969 150.738281 232.210938 L 150.792969 232.382812 C 150.609375 232.390625 150.429688 232.425781 150.253906 232.476562 C 150.078125 232.53125 149.914062 232.609375 149.757812 232.703125 C 149.601562 232.800781 149.460938 232.914062 149.332031 233.042969 C 149.203125 233.175781 149.09375 233.320312 149.003906 233.480469 C 148.910156 233.640625 148.839844 233.808594 148.792969 233.984375 C 148.742188 234.164062 148.714844 234.34375 148.710938 234.527344 C 148.707031 234.710938 148.726562 234.890625 148.765625 235.070312 C 148.808594 235.25 148.871094 235.417969 148.957031 235.582031 C 149.085938 235.84375 149.265625 236.070312 149.488281 236.257812 C 149.710938 236.449219 149.960938 236.589844 150.238281 236.679688 C 150.515625 236.769531 150.800781 236.800781 151.09375 236.777344 C 151.382812 236.753906 151.660156 236.675781 151.917969 236.539062 C 152.003906 236.492188 152.085938 236.441406 152.164062 236.382812 L 152.191406 236.464844 L 152.320312 236.789062 C 152.523438 237.34375 152.734375 237.890625 152.949219 238.421875 C 153.042969 238.65625 153.136719 238.863281 153.234375 239.105469 C 153.398438 239.492188 153.554688 239.882812 153.722656 240.257812 C 153.832031 240.511719 153.945312 240.753906 154.054688 241 C 154.207031 241.328125 154.359375 241.660156 154.492188 241.980469 C 154.613281 242.234375 154.734375 242.46875 154.855469 242.714844 C 154.980469 242.960938 155.078125 243.15625 155.191406 243.386719 C 154.234375 247.054688 151.992188 249.660156 149.113281 250.425781 Z M 212.804688 251.003906 C 210.539062 250.96875 208.78125 250.191406 207.4375 248.617188 C 203.28125 243.75 204.714844 233.207031 204.734375 233.101562 C 204.75 232.949219 204.734375 232.796875 204.691406 232.644531 C 204.648438 232.496094 204.582031 232.359375 204.484375 232.234375 C 204.390625 232.113281 204.273438 232.011719 204.140625 231.933594 C 204.003906 231.855469 203.859375 231.804688 203.707031 231.785156 C 203.550781 231.761719 203.398438 231.769531 203.246094 231.808594 C 203.097656 231.84375 202.957031 231.90625 202.832031 232 C 202.703125 232.089844 202.597656 232.199219 202.515625 232.332031 C 202.433594 232.464844 202.375 232.605469 202.347656 232.761719 C 202.292969 233.15625 201.242188 240.835938 203.585938 246.71875 L 176.054688 246.71875 C 178.394531 240.835938 177.347656 233.15625 177.289062 232.761719 C 177.265625 232.601562 177.214844 232.453125 177.132812 232.316406 C 177.050781 232.179688 176.949219 232.0625 176.820312 231.96875 C 176.691406 231.871094 176.550781 231.804688 176.398438 231.765625 C 176.242188 231.726562 176.085938 231.71875 175.929688 231.738281 C 175.769531 231.761719 175.621094 231.816406 175.484375 231.894531 C 175.347656 231.976562 175.230469 232.082031 175.136719 232.210938 C 175.039062 232.335938 174.972656 232.480469 174.933594 232.632812 C 174.894531 232.789062 174.886719 232.945312 174.910156 233.101562 C 174.910156 233.207031 176.359375 243.75 172.199219 248.617188 C 170.855469 250.191406 169.097656 250.96875 166.832031 251.003906 C 163.601562 251.058594 160.480469 248.253906 157.519531 242.703125 C 156.527344 240.8125 155.648438 238.867188 154.886719 236.875 C 153.605469 233.523438 152.5 230.113281 151.582031 226.644531 C 149.765625 219.933594 148.632812 213.664062 148.136719 210.675781 L 189.5 221.808594 C 189.710938 221.867188 189.917969 221.867188 190.128906 221.808594 L 231.492188 210.6875 C 231 213.683594 229.855469 220 228.027344 226.742188 C 227.804688 227.550781 227.585938 228.339844 227.359375 229.113281 C 227.078125 230.070312 226.792969 230.992188 226.503906 231.890625 C 225.382812 235.542969 223.960938 239.074219 222.238281 242.484375 C 219.238281 248.179688 216.050781 251.058594 212.792969 251.003906 Z M 236.714844 227.882812 C 239.519531 228.628906 241.628906 229.996094 242.820312 231.835938 C 244.179688 233.917969 244.421875 236.664062 243.535156 239.988281 C 242.597656 243.5 240.703125 246.539062 238.203125 248.515625 C 235.808594 250.40625 233.144531 251.089844 230.703125 250.441406 C 227.753906 249.65625 225.488281 246.964844 224.589844 243.207031 C 224.707031 242.980469 224.820312 242.730469 224.9375 242.492188 C 225.058594 242.253906 225.152344 242.050781 225.257812 241.835938 C 225.421875 241.496094 225.578125 241.140625 225.738281 240.785156 C 225.832031 240.574219 225.929688 240.367188 226.027344 240.148438 C 226.203125 239.738281 226.378906 239.3125 226.546875 238.886719 C 226.621094 238.703125 226.703125 238.527344 226.777344 238.339844 C 227.015625 237.738281 227.253906 237.113281 227.492188 236.472656 L 227.511719 236.421875 C 227.539062 236.351562 227.566406 236.273438 227.589844 236.195312 C 227.789062 236.453125 228.03125 236.65625 228.320312 236.808594 C 228.578125 236.941406 228.855469 237.019531 229.144531 237.042969 C 229.4375 237.066406 229.722656 237.03125 230 236.941406 C 230.277344 236.851562 230.527344 236.710938 230.75 236.523438 C 230.972656 236.332031 231.148438 236.109375 231.28125 235.847656 C 231.414062 235.589844 231.492188 235.3125 231.515625 235.019531 C 231.539062 234.730469 231.503906 234.445312 231.414062 234.167969 C 231.324219 233.890625 231.1875 233.640625 230.996094 233.417969 C 230.808594 233.195312 230.582031 233.015625 230.324219 232.882812 C 229.828125 232.632812 229.316406 232.578125 228.78125 232.722656 L 228.9375 232.238281 L 229.191406 231.398438 C 229.335938 230.933594 229.476562 230.472656 229.628906 229.996094 C 229.726562 229.671875 229.820312 229.332031 229.914062 229.003906 C 230.011719 228.671875 230.117188 228.300781 230.21875 227.941406 C 232.007812 227.246094 234.246094 227.230469 236.703125 227.882812 Z M 264.671875 221.550781 C 252.574219 217.132812 241.296875 217.050781 231.875 221.273438 C 233.296875 215.027344 234.066406 210.09375 234.160156 209.308594 C 243.503906 208.082031 251.84375 206.234375 259.207031 203.527344 C 261.964844 204.171875 280.3125 209.234375 279.714844 229.132812 C 274.984375 226.03125 269.96875 223.503906 264.660156 221.550781 Z M 264.671875 221.550781"/></g><path fill="#FFF" d="M 232.773438 151.378906 C 232.773438 151.796875 232.695312 152.203125 232.53125 152.589844 C 232.371094 152.980469 232.144531 153.324219 231.847656 153.621094 C 231.546875 153.917969 231.207031 154.148438 230.816406 154.308594 C 230.429688 154.46875 230.023438 154.550781 229.605469 154.550781 C 229.183594 154.550781 228.78125 154.46875 228.390625 154.308594 C 228.003906 154.148438 227.660156 153.917969 227.363281 153.621094 C 227.066406 153.324219 226.835938 152.980469 226.675781 152.589844 C 226.515625 152.203125 226.433594 151.796875 226.433594 151.378906 C 226.433594 150.957031 226.515625 150.550781 226.675781 150.164062 C 226.835938 149.773438 227.066406 149.429688 227.363281 149.132812 C 227.660156 148.835938 228.003906 148.605469 228.390625 148.445312 C 228.78125 148.285156 229.183594 148.203125 229.605469 148.203125 C 230.023438 148.203125 230.429688 148.285156 230.816406 148.445312 C 231.207031 148.605469 231.546875 148.835938 231.847656 149.132812 C 232.144531 149.429688 232.371094 149.773438 232.53125 150.164062 C 232.695312 150.550781 232.773438 150.957031 232.773438 151.378906 Z M 232.773438 151.378906"/><path fill="#FFF" d="M 151.292969 151.378906 C 151.292969 151.796875 151.210938 152.203125 151.050781 152.589844 C 150.890625 152.980469 150.660156 153.324219 150.363281 153.621094 C 150.066406 153.917969 149.722656 154.148438 149.335938 154.308594 C 148.945312 154.46875 148.542969 154.550781 148.121094 154.550781 C 147.703125 154.550781 147.296875 154.46875 146.910156 154.308594 C 146.519531 154.148438 146.179688 153.917969 145.878906 153.621094 C 145.582031 153.324219 145.355469 152.980469 145.195312 152.589844 C 145.03125 152.203125 144.953125 151.796875 144.953125 151.378906 C 144.953125 150.957031 145.03125 150.550781 145.195312 150.164062 C 145.355469 149.773438 145.582031 149.429688 145.878906 149.132812 C 146.179688 148.835938 146.519531 148.605469 146.910156 148.445312 C 147.296875 148.285156 147.703125 148.203125 148.121094 148.203125 C 148.542969 148.203125 148.945312 148.285156 149.335938 148.445312 C 149.722656 148.605469 150.066406 148.835938 150.363281 149.132812 C 150.660156 149.429688 150.890625 149.773438 151.050781 150.164062 C 151.210938 150.550781 151.292969 150.957031 151.292969 151.378906 Z M 151.292969 151.378906"/><g fill="#5CE1E6"><g><g><path d="M 19.699219 -35.082031 C 21.949219 -35.082031 24.199219 -34.597656 26.386719 -34.109375 C 28.089844 -33.683594 29.976562 -33.136719 31.738281 -33.136719 C 32.773438 -33.136719 33.320312 -33.625 33.320312 -34.65625 C 33.320312 -44.082031 26.632812 -44.203125 19.214844 -44.203125 C 11.25 -44.203125 2.734375 -39.824219 2.734375 -30.886719 C 2.734375 -24.078125 9.605469 -19.335938 15.566406 -17.632812 C 17.328125 -17.144531 19.214844 -16.84375 20.734375 -15.746094 C 21.765625 -15.019531 22.132812 -14.105469 22.132812 -12.828125 C 22.132812 -10.09375 19.335938 -9.304688 17.085938 -9.304688 C 14.773438 -9.304688 12.523438 -9.972656 10.335938 -10.640625 C 8.574219 -11.1875 6.6875 -11.976562 4.804688 -11.976562 C 4.132812 -11.976562 4.074219 -11.429688 4.074219 -10.882812 C 4.074219 -1.15625 10.761719 -0.0625 18.847656 -0.0625 C 27.058594 -0.0625 34.777344 -5.59375 34.777344 -14.289062 C 34.777344 -27.726562 15.261719 -25.535156 15.261719 -31.738281 C 15.261719 -34.292969 17.511719 -35.082031 19.699219 -35.082031 Z M 19.699219 -35.082031" transform="translate(2.065 323.552)"/></g></g></g><g fill="#5CE1E6"><g><g><path d="M 11.855469 -43.351562 C 9.851562 -43.351562 6.871094 -43.046875 5.53125 -41.285156 C 3.527344 -38.609375 3.40625 -27.179688 3.40625 -23.53125 C 3.40625 -21.28125 3.464844 -19.09375 3.464844 -16.84375 C 3.585938 -6.628906 11.550781 -0.0625 21.464844 -0.0625 C 28.457031 -0.0625 35.082031 -3.527344 38.125 -9.972656 C 39.15625 -12.160156 39.582031 -14.53125 39.582031 -16.902344 C 39.582031 -20.066406 39.644531 -23.226562 39.644531 -26.386719 C 39.644531 -29.550781 39.523438 -39.765625 36.96875 -41.832031 C 35.265625 -43.230469 33.136719 -43.230469 31.007812 -43.230469 C 26.570312 -43.230469 27.117188 -39.035156 27.117188 -35.875 C 27.117188 -29.246094 27.300781 -22.679688 27.300781 -16.050781 C 27.300781 -11.796875 25.839844 -9.484375 21.339844 -9.484375 C 16.660156 -9.484375 15.992188 -13.011719 15.992188 -16.902344 C 15.992188 -21.464844 16.417969 -25.960938 16.417969 -30.523438 C 16.417969 -33.867188 16.355469 -37.273438 15.746094 -40.554688 C 15.566406 -41.46875 15.261719 -42.320312 14.472656 -42.804688 C 13.742188 -43.230469 12.707031 -43.351562 11.855469 -43.351562 Z M 11.855469 -43.351562" transform="translate(36.476 323.552)"/></g></g></g><g fill="#5CE1E6"><g><g><path d="M 4.074219 -19.09375 C 4.074219 -15.566406 4.257812 -3.222656 8.085938 -1.703125 C 9.546875 -1.09375 11.25 -1.035156 12.828125 -1.035156 C 15.6875 -1.035156 16.355469 -2.433594 16.355469 -5.046875 C 16.355469 -6.566406 16.171875 -8.085938 16.171875 -9.605469 C 16.171875 -10.457031 16.234375 -13.132812 16.78125 -13.742188 C 17.9375 -14.898438 38.851562 -11.675781 38.851562 -28.636719 C 38.851562 -39.035156 29.183594 -44.203125 19.882812 -44.203125 C 16.964844 -44.203125 10.578125 -44.019531 8.085938 -42.804688 C 4.195312 -40.859375 4.074219 -29.488281 4.074219 -25.660156 Z M 16.171875 -32.773438 C 16.234375 -34.171875 16.597656 -35.386719 18.300781 -35.386719 L 19.820312 -35.386719 C 23.289062 -35.386719 27.421875 -33.503906 27.421875 -29.550781 C 27.421875 -25.292969 24.382812 -22.253906 20.125 -22.253906 C 17.207031 -22.253906 16.171875 -22.558594 16.171875 -25.71875 Z M 16.171875 -32.773438" transform="translate(76.358 323.552)"/></g></g></g><g fill="#5CE1E6"><g><g><path d="M 16.539062 -13.4375 C 16.539062 -14.289062 16.539062 -15.199219 16.71875 -16.050781 C 16.84375 -16.597656 17.023438 -17.144531 17.449219 -17.511719 C 18.605469 -18.484375 21.585938 -18.300781 23.105469 -18.300781 C 25.050781 -18.300781 31.132812 -17.9375 32.285156 -19.640625 C 32.710938 -20.308594 32.832031 -21.28125 32.832031 -22.070312 C 32.832031 -23.042969 32.832031 -24.808594 32.226562 -25.597656 C 31.253906 -26.875 29.429688 -27.117188 27.910156 -27.117188 C 26.085938 -27.117188 24.261719 -26.933594 22.4375 -26.933594 C 20.246094 -26.933594 16.597656 -27.117188 16.597656 -30.097656 C 16.597656 -34.171875 18.242188 -34.109375 21.707031 -34.109375 C 23.714844 -34.109375 25.71875 -33.804688 27.726562 -33.804688 C 29.550781 -33.804688 33.503906 -33.746094 33.503906 -36.359375 C 33.503906 -37.941406 33.257812 -39.765625 32.105469 -40.980469 C 30.15625 -43.046875 26.8125 -43.65625 24.078125 -43.65625 C 11.003906 -43.65625 4.074219 -43.535156 4.074219 -28.210938 C 4.074219 -25.78125 4.132812 -23.410156 4.132812 -20.976562 C 4.132812 -17.996094 4.195312 -15.019531 4.378906 -12.039062 C 4.683594 -7.480469 5.898438 -3.832031 10.398438 -2.007812 C 14.410156 -0.363281 19.457031 -0.730469 23.773438 -0.730469 C 27.726562 -0.730469 33.441406 -1.640625 33.441406 -6.6875 C 33.441406 -9.546875 32.953125 -10.398438 29.976562 -10.398438 C 26.632812 -10.398438 23.226562 -10.214844 19.882812 -10.214844 C 17.695312 -10.214844 16.539062 -11.25 16.539062 -13.4375 Z M 16.539062 -13.4375" transform="translate(113.2 323.552)"/></g></g></g><g fill="#5CE1E6"><g><g><path d="M 16.296875 -6.082031 C 16.296875 -7.601562 16.113281 -9.121094 16.113281 -10.578125 C 16.113281 -11.675781 16.113281 -15.746094 17.632812 -15.746094 C 27.785156 -15.746094 22.496094 -0.972656 30.339844 -0.972656 C 31.859375 -0.972656 38.125 -1.277344 38.125 -3.40625 C 38.125 -6.082031 35.082031 -15.140625 33.320312 -17.085938 C 32.953125 -17.449219 31.253906 -19.03125 31.253906 -19.457031 C 31.253906 -19.761719 32.164062 -20.367188 32.40625 -20.492188 C 34.476562 -21.828125 36.300781 -23.589844 37.574219 -25.71875 C 38.425781 -27.117188 38.730469 -28.636719 38.730469 -30.21875 C 38.730469 -39.339844 29.855469 -44.265625 21.644531 -44.265625 C 18.121094 -44.265625 9.910156 -44.203125 7.234375 -41.894531 C 5.898438 -40.738281 5.230469 -37.820312 4.925781 -36.117188 C 4.257812 -31.980469 4.074219 -27.726562 4.074219 -23.53125 C 4.074219 -19.519531 3.707031 -3.464844 8.027344 -1.703125 C 9.484375 -1.09375 11.125 -1.035156 12.707031 -1.035156 C 16.113281 -1.035156 16.296875 -3.285156 16.296875 -6.082031 Z M 16.171875 -32.347656 C 16.171875 -33.988281 16.660156 -35.386719 18.542969 -35.386719 L 20.308594 -35.386719 C 23.226562 -35.386719 26.449219 -33.378906 26.449219 -30.15625 C 26.449219 -24.6875 22.253906 -24.199219 17.816406 -24.199219 C 16.296875 -24.199219 16.171875 -25.960938 16.171875 -27.117188 Z M 16.171875 -32.347656" transform="translate(147.611 323.552)"/></g></g></g><g fill="#5CE1E6"><g><g><path d="M 25.78125 -18.179688 C 25.78125 -22.316406 18.484375 -22.4375 15.566406 -22.4375 C 14.105469 -22.4375 12.707031 -22.316406 11.25 -22.316406 C 7.355469 -22.316406 3.832031 -21.828125 3.832031 -17.023438 C 3.832031 -12.949219 10.761719 -12.890625 13.558594 -12.890625 C 15.078125 -12.890625 16.660156 -12.828125 18.179688 -12.828125 C 21.890625 -12.828125 25.78125 -13.742188 25.78125 -18.179688 Z M 25.78125 -18.179688" transform="translate(186.278 323.552)"/></g></g></g><g fill="#5CE1E6"><g><g><path d="M 13.195312 -43.292969 C 11.1875 -43.292969 9 -43.292969 7.355469 -42.074219 C 6.75 -41.648438 6.324219 -41.042969 5.957031 -40.433594 C 4.074219 -36.96875 4.074219 -25.050781 4.074219 -20.734375 C 4.074219 -16.964844 4.011719 -3.285156 8.148438 -1.640625 C 9.484375 -1.09375 11.550781 -1.035156 13.011719 -1.035156 C 16.476562 -1.035156 16.660156 -3.40625 16.660156 -6.203125 C 16.660156 -8.390625 16.296875 -10.519531 16.296875 -12.585938 C 16.296875 -16.660156 17.753906 -18.363281 21.828125 -18.363281 C 24.867188 -18.363281 27.605469 -18.179688 27.605469 -14.410156 C 27.605469 -12.222656 27.300781 -10.03125 27.300781 -7.84375 C 27.300781 -5.472656 27.484375 -1.035156 30.707031 -1.035156 C 32.652344 -1.035156 35.203125 -1.09375 36.847656 -2.308594 C 37.453125 -2.734375 37.878906 -3.285156 38.246094 -3.890625 C 39.945312 -7.054688 40.191406 -16.597656 40.191406 -20.367188 C 40.191406 -25.171875 40.433594 -38.671875 37.089844 -42.015625 C 36.054688 -43.109375 32.40625 -43.292969 30.949219 -43.292969 C 28.089844 -43.292969 27.484375 -41.46875 27.484375 -38.914062 C 27.484375 -36.664062 27.96875 -34.476562 27.96875 -32.226562 C 27.96875 -28.210938 25.71875 -27.179688 22.132812 -27.179688 C 16.71875 -27.179688 16.539062 -28.820312 16.539062 -33.683594 C 16.539062 -35.203125 16.78125 -36.726562 16.78125 -38.246094 C 16.78125 -40.859375 16.296875 -43.292969 13.195312 -43.292969 Z M 13.195312 -43.292969" transform="translate(212.785 323.552)"/></g></g></g><g fill="#5CE1E6"><g><g><path d="M 16.539062 -13.4375 C 16.539062 -14.289062 16.539062 -15.199219 16.71875 -16.050781 C 16.84375 -16.597656 17.023438 -17.144531 17.449219 -17.511719 C 18.605469 -18.484375 21.585938 -18.300781 23.105469 -18.300781 C 25.050781 -18.300781 31.132812 -17.9375 32.285156 -19.640625 C 32.710938 -20.308594 32.832031 -21.28125 32.832031 -22.070312 C 32.832031 -23.042969 32.832031 -24.808594 32.226562 -25.597656 C 31.253906 -26.875 29.429688 -27.117188 27.910156 -27.117188 C 26.085938 -27.117188 24.261719 -26.933594 22.4375 -26.933594 C 20.246094 -26.933594 16.597656 -27.117188 16.597656 -30.097656 C 16.597656 -34.171875 18.242188 -34.109375 21.707031 -34.109375 C 23.714844 -34.109375 25.71875 -33.804688 27.726562 -33.804688 C 29.550781 -33.804688 33.503906 -33.746094 33.503906 -36.359375 C 33.503906 -37.941406 33.257812 -39.765625 32.105469 -40.980469 C 30.15625 -43.046875 26.8125 -43.65625 24.078125 -43.65625 C 11.003906 -43.65625 4.074219 -43.535156 4.074219 -28.210938 C 4.074219 -25.78125 4.132812 -23.410156 4.132812 -20.976562 C 4.132812 -17.996094 4.195312 -15.019531 4.378906 -12.039062 C 4.683594 -7.480469 5.898438 -3.832031 10.398438 -2.007812 C 14.410156 -0.363281 19.457031 -0.730469 23.773438 -0.730469 C 27.726562 -0.730469 33.441406 -1.640625 33.441406 -6.6875 C 33.441406 -9.546875 32.953125 -10.398438 29.976562 -10.398438 C 26.632812 -10.398438 23.226562 -10.214844 19.882812 -10.214844 C 17.695312 -10.214844 16.539062 -11.25 16.539062 -13.4375 Z M 16.539062 -13.4375" transform="translate(253.883 323.552)"/></g></g></g><g fill="#5CE1E6"><g><g><path d="M 16.296875 -6.082031 C 16.296875 -7.601562 16.113281 -9.121094 16.113281 -10.578125 C 16.113281 -11.675781 16.113281 -15.746094 17.632812 -15.746094 C 27.785156 -15.746094 22.496094 -0.972656 30.339844 -0.972656 C 31.859375 -0.972656 38.125 -1.277344 38.125 -3.40625 C 38.125 -6.082031 35.082031 -15.140625 33.320312 -17.085938 C 32.953125 -17.449219 31.253906 -19.03125 31.253906 -19.457031 C 31.253906 -19.761719 32.164062 -20.367188 32.40625 -20.492188 C 34.476562 -21.828125 36.300781 -23.589844 37.574219 -25.71875 C 38.425781 -27.117188 38.730469 -28.636719 38.730469 -30.21875 C 38.730469 -39.339844 29.855469 -44.265625 21.644531 -44.265625 C 18.121094 -44.265625 9.910156 -44.203125 7.234375 -41.894531 C 5.898438 -40.738281 5.230469 -37.820312 4.925781 -36.117188 C 4.257812 -31.980469 4.074219 -27.726562 4.074219 -23.53125 C 4.074219 -19.519531 3.707031 -3.464844 8.027344 -1.703125 C 9.484375 -1.09375 11.125 -1.035156 12.707031 -1.035156 C 16.113281 -1.035156 16.296875 -3.285156 16.296875 -6.082031 Z M 16.171875 -32.347656 C 16.171875 -33.988281 16.660156 -35.386719 18.542969 -35.386719 L 20.308594 -35.386719 C 23.226562 -35.386719 26.449219 -33.378906 26.449219 -30.15625 C 26.449219 -24.6875 22.253906 -24.199219 17.816406 -24.199219 C 16.296875 -24.199219 16.171875 -25.960938 16.171875 -27.117188 Z M 16.171875 -32.347656" transform="translate(288.294 323.552)"/></g></g></g><g fill="#5CE1E6"><g><g><path d="M 22.375 -44.203125 C 10.277344 -44.203125 1.277344 -34.050781 1.277344 -22.191406 C 1.277344 -9.546875 10.945312 -0.121094 23.53125 -0.121094 C 35.507812 -0.121094 44.871094 -10.457031 44.871094 -22.191406 C 44.871094 -35.023438 35.023438 -44.203125 22.375 -44.203125 Z M 23.589844 -9.851562 C 16.964844 -9.851562 13.921875 -14.773438 13.921875 -20.917969 C 13.921875 -27.117188 15.382812 -34.476562 23.042969 -34.476562 C 30.886719 -34.476562 32.164062 -27.179688 32.164062 -20.917969 C 32.164062 -15.808594 29.429688 -9.851562 23.589844 -9.851562 Z M 23.589844 -9.851562" transform="translate(326.96 323.552)"/></g></g></g></svg>